<svg xmlns="http://www.w3.org/2000/svg" xmlns:html="http://www.w3.org/1999/xhtml" xmlns:xlink="http://www.w3.org/1999/xlink" version="1.1"><style xmlns="http://www.w3.org/1999/xhtml">
    .blocklyText {
        fill: #fff;
        font-family: "Helvetica Neue", Helvetica, sans-serif;
        font-size: 12pt;
        font-weight: 500;
    }
    .blocklyNonEditableText&gt;text, .blocklyEditableText&gt;text {
        fill: #575E75;
    }
    .blocklyDropdownText {
        fill: #fff !important;
    }
    </style><g data-id=",g~EoFBN#JL#~xrp(810" class="blocklyDraggable blocklySelected" data-shapes="reporter round" data-category="ScratchHook" transform="translate(0,0) "><path class="blocklyPath blocklyBlockBackground" stroke="#2d368d" fill="#3843B0" fill-opacity="1" d="m 0,0 m 20,0 H 104.46759271621704 a 20 20 0 0 1 0 40 H 20 a 20 20 0 0 1 0 -40 z"/><path class="blocklyPath" style="visibility: visible" d="M 16,0 h 16 a 16 16 0 0 1 0 32 h -16 a 16 16 0 0 1 0 -32 z" fill="#2d368d" transform="translate(4,4)" data-argument-type="round"/><text class="blocklyText" y="2" text-anchor="middle" dominant-baseline="middle" dy="0" x="2.2337963581085205" transform="translate(60, 20) ">,</text><path class="blocklyPath" style="visibility: visible" d="M 16,0 h 16 a 16 16 0 0 1 0 32 h -16 a 16 16 0 0 1 0 -32 z" fill="#2d368d" transform="translate(72.46759271621704,4)" data-argument-type="round"/></g></svg>