<svg xmlns="http://www.w3.org/2000/svg" xmlns:html="http://www.w3.org/1999/xhtml" xmlns:xlink="http://www.w3.org/1999/xlink" version="1.1"><style xmlns="http://www.w3.org/1999/xhtml">
    .blocklyText {
        fill: #fff;
        font-family: "Helvetica Neue", Helvetica, sans-serif;
        font-size: 12pt;
        font-weight: 500;
    }
    .blocklyNonEditableText&gt;text, .blocklyEditableText&gt;text {
        fill: #575E75;
    }
    .blocklyDropdownText {
        fill: #fff !important;
    }
    </style><g data-id="!.4^:J,7V]ufOyK(KF:Z" class="blocklyDraggable blocklySelected" data-shapes="stack" data-category="ScratchHook" transform="translate(0,0) "><path class="blocklyPath blocklyBlockBackground" stroke="#2d368d" fill="#3843B0" fill-opacity="1" d="m 0,4 A 4,4 0 0,1 4,0 H 12 c 2,0 3,1 4,2 l 4,4 c 1,1 2,2 4,2 h 12 c 2,0 3,-1 4,-2 l 4,-4 c 1,-1 2,-2 4,-2 H 318.8379592895508 a 4,4 0 0,1 4,4 v 40  a 4,4 0 0,1 -4,4 H 48   c -2,0 -3,1 -4,2 l -4,4 c -1,1 -2,2 -4,2 h -12 c -2,0 -3,-1 -4,-2 l -4,-4 c -1,-1 -2,-2 -4,-2 H 4 a 4,4 0 0,1 -4,-4 z"/><g data-id="2M[AtmOuYaN{CH8(CinV" data-argument-type="text" data-shapes="argument round" transform="translate(274.8379592895508,8)"><path class="blocklyPath blocklyBlockBackground" stroke="#2d368d" fill="#FFFFFF" fill-opacity="1" d="m 0,0 m 16,0 H 24 a 16 16 0 0 1 0 32 H 16 a 16 16 0 0 1 0 -32 z"/><g class="blocklyEditableText" transform="translate(8, 0) " style="cursor: text;"><text class="blocklyText" x="12" y="18" dominant-baseline="middle" dy="0" text-anchor="middle"> </text></g></g><text class="blocklyText" y="2" text-anchor="middle" dominant-baseline="middle" dy="0" x="52.04861068725586" transform="translate(8, 24) ">webhook data:</text><path class="blocklyPath" style="visibility: visible" d="M 16,0 h 16 a 16 16 0 0 1 0 32 h -16 a 16 16 0 0 1 0 -32 z" fill="#2d368d" transform="translate(120.09722137451172,8)" data-argument-type="round"/><text class="blocklyText" y="2" text-anchor="middle" dominant-baseline="middle" dy="0" x="45.37036895751953" transform="translate(176.09722137451172, 24) ">webhook url:</text><path class="blocklyPath" style="visibility: hidden" d="" fill="#2d368d"/></g></svg>